<svg xmlns="http://www.w3.org/2000/svg" width="48" height="48" viewBox="0 0 48 48" fill="none">
  <rect width="48" height="48" rx="12" fill="#6366F1"/>
  <path d="M24 12C17.3726 12 12 17.3726 12 24C12 30.6274 17.3726 36 24 36C30.6274 36 36 30.6274 36 24C36 17.3726 30.6274 12 24 12ZM24 33C19.0294 33 15 28.9706 15 24C15 19.0294 19.0294 15 24 15C28.9706 15 33 19.0294 33 24C33 28.9706 28.9706 33 24 33Z" fill="white"/>
  <path d="M24 18C21.5147 18 19.5 20.0147 19.5 22.5V28.5C19.5 29.3284 20.1716 30 21 30C21.8284 30 22.5 29.3284 22.5 28.5V22.5C22.5 21.6716 23.1716 21 24 21C24.8284 21 25.5 21.6716 25.5 22.5V28.5C25.5 29.3284 26.1716 30 27 30C27.8284 30 28.5 29.3284 28.5 28.5V22.5C28.5 20.0147 26.4853 18 24 18Z" fill="white"/>
</svg>
