<svg xmlns="http://www.w3.org/2000/svg" width="128" height="128" viewBox="0 0 128 128" fill="none">
  <rect width="128" height="128" rx="32" fill="#6366F1"/>
  <path d="M64 32C46.3269 32 32 46.3269 32 64C32 81.6731 46.3269 96 64 96C81.6731 96 96 81.6731 96 64C96 46.3269 81.6731 32 64 32ZM64 88C50.7452 88 40 77.2548 40 64C40 50.7452 50.7452 40 64 40C77.2548 40 88 50.7452 88 64C88 77.2548 77.2548 88 64 88Z" fill="white"/>
  <path d="M64 48C57.3726 48 52 53.3726 52 60V76C52 78.2091 53.7909 80 56 80C58.2091 80 60 78.2091 60 76V60C60 57.7909 61.7909 56 64 56C66.2091 56 68 57.7909 68 60V76C68 78.2091 69.7909 80 72 80C74.2091 80 76 78.2091 76 76V60C76 53.3726 70.6274 48 64 48Z" fill="white"/>
</svg>
