<svg xmlns="http://www.w3.org/2000/svg" width="16" height="16" viewBox="0 0 16 16" fill="none">
  <rect width="16" height="16" rx="4" fill="#6366F1"/>
  <path d="M8 4C5.79086 4 4 5.79086 4 8C4 10.2091 5.79086 12 8 12C10.2091 12 12 10.2091 12 8C12 5.79086 10.2091 4 8 4ZM8 11C6.34315 11 5 9.65685 5 8C5 6.34315 6.34315 5 8 5C9.65685 5 11 6.34315 11 8C11 9.65685 9.65685 11 8 11Z" fill="white"/>
  <path d="M8 6C7.17157 6 6.5 6.67157 6.5 7.5V9.5C6.5 9.77614 6.72386 10 7 10C7.27614 10 7.5 9.77614 7.5 9.5V7.5C7.5 7.22386 7.72386 7 8 7C8.27614 7 8.5 7.22386 8.5 7.5V9.5C8.5 9.77614 8.72386 10 9 10C9.27614 10 9.5 9.77614 9.5 9.5V7.5C9.5 6.67157 8.82843 6 8 6Z" fill="white"/>
</svg>
