<svg xmlns="http://www.w3.org/2000/svg" width="32" height="32" viewBox="0 0 32 32" fill="none">
  <rect width="32" height="32" rx="8" fill="#6366F1"/>
  <path d="M16 8C11.5817 8 8 11.5817 8 16C8 20.4183 11.5817 24 16 24C20.4183 24 24 20.4183 24 16C24 11.5817 20.4183 8 16 8ZM16 22C12.6863 22 10 19.3137 10 16C10 12.6863 12.6863 10 16 10C19.3137 10 22 12.6863 22 16C22 19.3137 19.3137 22 16 22Z" fill="white"/>
  <path d="M16 12C14.3431 12 13 13.3431 13 15V19C13 19.5523 13.4477 20 14 20C14.5523 20 15 19.5523 15 19V15C15 14.4477 15.4477 14 16 14C16.5523 14 17 14.4477 17 15V19C17 19.5523 17.4477 20 18 20C18.5523 20 19 19.5523 19 19V15C19 13.3431 17.6569 12 16 12Z" fill="white"/>
</svg>
